<svg xmlns="http://www.w3.org/2000/svg" version="1.1" xmlns:xlink="http://www.w3.org/1999/xlink" xmlns:svgjs="http://svgjs.dev/svgjs" width="1500" height="1500" viewBox="0 0 1500 1500"><rect width="1500" height="1500" fill="#ffffff"></rect><g transform="matrix(0.6666666666666666,0,0,0.6666666666666666,249.39393939393938,614.63993379054)"><svg viewBox="0 0 396 107" data-background-color="#293040" preserveAspectRatio="xMidYMid meet" height="405" width="1500" xmlns="http://www.w3.org/2000/svg" xmlns:xlink="http://www.w3.org/1999/xlink"><g id="tight-bounds" transform="matrix(1,0,0,1,0.2400000000000091,0.14269290523046152)"><svg viewBox="0 0 395.52 106.71461418953908" height="106.71461418953908" width="395.52"><g><svg viewBox="0 0 395.52 106.71461418953908" height="106.71461418953908" width="395.52"><g><svg viewBox="0 0 395.52000000000004 106.71461418953909" height="106.71461418953908" width="395.52"><g><svg viewBox="0 0 395.52000000000004 106.71461418953909" height="106.71461418953909" width="395.52000000000004"><g id="textblocktransform"><svg viewBox="0 0 395.52000000000004 106.71461418953909" height="106.71461418953909" width="395.52000000000004" id="textblock"><g><svg viewBox="0 0 395.52000000000004 106.71461418953909" height="106.71461418953909" width="395.52000000000004"><g transform="matrix(1,0,0,1,0,0)"><svg width="395.52000000000004" viewBox="2.25 -38.5 193.08 52.1" height="106.71461418953909" data-palette-color="#ebeeed"><g class="wordmark-text-0" data-fill-palette-color="primary" id="text-0"><path d="M13.75 0.45Q10.5 0.45 7.93-0.73 5.35-1.9 3.85-3.93 2.35-5.95 2.25-8.45L2.25-8.45 8.15-8.45Q8.3-6.7 9.83-5.53 11.35-4.35 13.65-4.35L13.65-4.35Q16.05-4.35 17.38-5.28 18.7-6.2 18.7-7.65L18.7-7.65Q18.7-9.2 17.23-9.95 15.75-10.7 12.55-11.6L12.55-11.6Q9.45-12.45 7.5-13.25 5.55-14.05 4.13-15.7 2.7-17.35 2.7-20.05L2.7-20.05Q2.7-22.25 4-24.08 5.3-25.9 7.73-26.95 10.15-28 13.3-28L13.3-28Q18-28 20.88-25.63 23.75-23.25 23.95-19.15L23.95-19.15 18.25-19.15Q18.1-21 16.75-22.1 15.4-23.2 13.1-23.2L13.1-23.2Q10.85-23.2 9.65-22.35 8.45-21.5 8.45-20.1L8.45-20.1Q8.45-19 9.25-18.25 10.05-17.5 11.2-17.07 12.35-16.65 14.6-16L14.6-16Q17.6-15.2 19.53-14.38 21.45-13.55 22.85-11.95 24.25-10.35 24.3-7.7L24.3-7.7Q24.3-5.35 23-3.5 21.7-1.65 19.33-0.6 16.95 0.45 13.75 0.45L13.75 0.45ZM33.35-31.2Q31.8-31.2 30.75-32.25 29.7-33.3 29.7-34.85L29.7-34.85Q29.7-36.4 30.75-37.45 31.8-38.5 33.35-38.5L33.35-38.5Q34.85-38.5 35.9-37.45 36.95-36.4 36.95-34.85L36.95-34.85Q36.95-33.3 35.9-32.25 34.85-31.2 33.35-31.2L33.35-31.2ZM30.45-27.55L36.15-27.55 36.15 0 30.45 0 30.45-27.55ZM77-28Q80.25-28 82.82-26.65 85.4-25.3 86.87-22.65 88.34-20 88.34-16.25L88.34-16.25 88.34 0 82.7 0 82.7-15.4Q82.7-19.1 80.84-21.08 79-23.05 75.8-23.05L75.8-23.05Q72.59-23.05 70.72-21.08 68.84-19.1 68.84-15.4L68.84-15.4 68.84 0 63.2 0 63.2-15.4Q63.2-19.1 61.35-21.08 59.5-23.05 56.3-23.05L56.3-23.05Q53.1-23.05 51.22-21.08 49.35-19.1 49.35-15.4L49.35-15.4 49.35 0 43.65 0 43.65-27.55 49.35-27.55 49.35-24.4Q50.75-26.1 52.9-27.05 55.05-28 57.5-28L57.5-28Q60.8-28 63.4-26.6 66-25.2 67.4-22.55L67.4-22.55Q68.65-25.05 71.3-26.53 73.95-28 77-28L77-28ZM98.49-31.2Q96.94-31.2 95.89-32.25 94.84-33.3 94.84-34.85L94.84-34.85Q94.84-36.4 95.89-37.45 96.94-38.5 98.49-38.5L98.49-38.5Q99.99-38.5 101.04-37.45 102.09-36.4 102.09-34.85L102.09-34.85Q102.09-33.3 101.04-32.25 99.99-31.2 98.49-31.2L98.49-31.2ZM95.59-27.55L101.29-27.55 101.29 0 95.59 0 95.59-27.55ZM108.79-37L114.49-37 114.49 0 108.79 0 108.79-37ZM124.89-31.2Q123.34-31.2 122.29-32.25 121.24-33.3 121.24-34.85L121.24-34.85Q121.24-36.4 122.29-37.45 123.34-38.5 124.89-38.5L124.89-38.5Q126.39-38.5 127.44-37.45 128.49-36.4 128.49-34.85L128.49-34.85Q128.49-33.3 127.44-32.25 126.39-31.2 124.89-31.2L124.89-31.2ZM121.99-27.55L127.69-27.55 127.69 0 121.99 0 121.99-27.55ZM146.28-28Q149.49-28 151.96-26.73 154.44-25.45 155.84-23.55L155.84-23.55 155.84-27.55 161.59-27.55 161.59 0.45Q161.59 4.25 159.99 7.23 158.38 10.2 155.36 11.9 152.34 13.6 148.13 13.6L148.13 13.6Q142.53 13.6 138.84 10.98 135.13 8.35 134.63 3.85L134.63 3.85 140.28 3.85Q140.94 6 143.06 7.33 145.19 8.65 148.13 8.65L148.13 8.65Q151.59 8.65 153.71 6.55 155.84 4.45 155.84 0.45L155.84 0.45 155.84-4.15Q154.38-2.2 151.91-0.88 149.44 0.45 146.28 0.45L146.28 0.45Q142.69 0.45 139.71-1.38 136.74-3.2 135.01-6.48 133.28-9.75 133.28-13.9L133.28-13.9Q133.28-18.05 135.01-21.25 136.74-24.45 139.71-26.23 142.69-28 146.28-28L146.28-28ZM155.84-13.8Q155.84-16.65 154.66-18.75 153.49-20.85 151.59-21.95 149.69-23.05 147.49-23.05L147.49-23.05Q145.28-23.05 143.38-21.98 141.49-20.9 140.31-18.82 139.13-16.75 139.13-13.9L139.13-13.9Q139.13-11.05 140.31-8.9 141.49-6.75 143.41-5.63 145.34-4.5 147.49-4.5L147.49-4.5Q149.69-4.5 151.59-5.6 153.49-6.7 154.66-8.83 155.84-10.95 155.84-13.8L155.84-13.8ZM181.03 0.45Q177.13 0.45 173.98-1.33 170.83-3.1 169.03-6.33 167.23-9.55 167.23-13.8L167.23-13.8Q167.23-18 169.08-21.25 170.93-24.5 174.13-26.25 177.33-28 181.28-28L181.28-28Q185.23-28 188.43-26.25 191.63-24.5 193.48-21.25 195.33-18 195.33-13.8L195.33-13.8Q195.33-9.6 193.43-6.35 191.53-3.1 188.26-1.33 184.98 0.45 181.03 0.45L181.03 0.45ZM181.03-4.5Q183.23-4.5 185.16-5.55 187.08-6.6 188.28-8.7 189.48-10.8 189.48-13.8L189.48-13.8Q189.48-16.8 188.33-18.88 187.18-20.95 185.28-22 183.38-23.05 181.18-23.05L181.18-23.05Q178.98-23.05 177.11-22 175.23-20.95 174.13-18.88 173.03-16.8 173.03-13.8L173.03-13.8Q173.03-9.35 175.31-6.93 177.58-4.5 181.03-4.5L181.03-4.5Z" fill="#000000" data-fill-palette-color="primary"></path></g></svg></g></svg></g></svg></g></svg></g></svg></g></svg></g><defs></defs></svg><rect width="395.52" height="106.71461418953908" fill="none" stroke="none" visibility="hidden"></rect></g></svg></g></svg>